<svg width="3196" height="1340" viewBox="0 0 3196 1340" fill="none" xmlns="http://www.w3.org/2000/svg">
<g clip-path="url(#clip0_6_421)">
<rect width="3195.26" height="1348" transform="translate(0 -1)" fill="#121214"/>
<g opacity="0.1">
<path fill-rule="evenodd" clip-rule="evenodd" d="M2803.02 55.7635C2803.02 55.7635 2869.5 115.307 2909.01 138.458C2948.52 161.609 2970.17 151.688 2970.17 151.688C2970.17 151.688 3005.06 161.868 3026.41 178.279C3047.75 194.691 3051.22 207.153 3064.45 223.694C3077.69 240.235 3118.12 235.702 3118.12 235.702L3210.31 283.54L3304.01 335.641C3304.01 335.641 3211.31 281.312 3201.51 264.771C3191.71 248.23 3115.57 188.081 3102.34 171.54C3089.11 154.999 3070.91 158.309 3057.68 135.158C3044.45 112.007 3029.57 85.5351 3008.06 65.6946C2986.56 45.8432 2941.95 16.0716 2917.94 2.84095C2893.94 -10.3897 2855.9 -23.6203 2855.9 -23.6203L2789.75 -38.5061L2725.25 -73.7626H2429.2C2429.2 -73.7626 2574.41 26.0027 2640.4 50.8088C2665.37 60.1881 2803.03 55.7743 2803.03 55.7743L2803.02 55.7635Z" fill="#633BBC"/>
<path fill-rule="evenodd" clip-rule="evenodd" d="M1337.11 364.113C1337.11 364.113 1387.14 396.827 1401.13 408.813C1415.12 420.8 1461.06 426.133 1470.06 429.465C1479.06 432.797 1500.63 462.774 1500.63 462.774C1500.63 462.774 1513.06 484.941 1516.04 500.833C1519.03 516.725 1558.92 534.715 1558.92 534.715L1596.78 550.705C1596.78 550.705 1538.12 484.757 1531.57 468.779C1525.02 452.789 1533.05 438.141 1516.05 429.476C1499.04 420.822 1457.71 406.834 1453.4 390.844C1449.1 374.855 1381.82 318.903 1360.51 308.918C1339.19 298.922 1275.98 274.949 1275.98 274.949C1275.98 274.949 1317.05 342.152 1337.12 364.134L1337.11 364.113Z" fill="#633BBC"/>
<path fill-rule="evenodd" clip-rule="evenodd" d="M233.902 715.811C233.902 715.811 315.439 788.844 363.904 817.253C412.37 845.651 438.939 833.48 438.939 833.48C438.939 833.48 481.736 845.964 507.916 866.097C534.096 886.229 538.358 901.516 554.586 921.81C570.813 942.095 620.414 936.534 620.414 936.534L733.486 995.212L848.429 1059.11C848.429 1059.11 734.719 992.475 722.7 972.191C710.67 951.907 617.277 878.116 601.05 857.832C584.822 837.548 562.505 841.605 546.277 813.196C530.05 784.798 511.789 752.333 485.414 727.992C459.039 703.651 404.31 667.129 374.874 650.902C345.427 634.674 298.768 618.436 298.768 618.436L217.621 600.175L138.497 556.924H-224.67C-224.67 556.924 -46.5482 679.299 34.4042 709.731C65.0197 721.241 233.902 715.822 233.902 715.822V715.811Z" fill="#633BBC"/>
<path fill-rule="evenodd" clip-rule="evenodd" d="M2939.04 525.712C2939.04 525.712 3049.54 587.279 3063.53 599.265C3077.52 611.252 3054.79 618.954 3061.32 625.986C3077.59 643.49 3161.25 666.976 3161.25 666.976C3161.25 666.976 3175.22 671.725 3178.2 687.617C3181.19 703.509 3199.91 713.797 3199.91 713.797L3237.76 729.787C3237.76 729.787 3157.74 662.714 3151.19 646.735C3144.63 630.746 3134.21 628.864 3117.22 620.209C3100.21 611.555 3043.61 588.826 3039.31 572.836C3035 556.847 2931.98 431.118 2910.66 421.133C2889.34 411.137 2809.12 398.945 2809.12 398.945C2809.12 398.945 2918.97 503.73 2939.04 525.712Z" fill="#633BBC"/>
<path fill-rule="evenodd" clip-rule="evenodd" d="M1067.01 -34.7211C1067.01 -34.7211 1160.37 34.948 1203.41 53.3064C1203.41 53.3064 1257.26 49.2821 1264.54 53.3064C1271.82 57.3308 1303.8 77.1713 1307.11 84.8955C1310.42 92.6088 1312.62 109.15 1319.23 116.874C1325.86 124.587 1385.39 153.256 1406.34 156.566C1427.3 159.876 1478.01 169.797 1487.93 176.417C1497.85 183.038 1494.55 198.465 1500.06 206.189C1505.58 213.902 1538.65 227.144 1551.88 235.961C1565.11 244.777 1606.45 242.581 1618.85 248.088C1631.26 253.605 1657.72 270.135 1657.72 270.135L1667.63 278.952C1667.63 278.952 1662.11 297.7 1667.63 303.206C1673.16 308.724 1696.31 313.127 1696.31 313.127C1696.31 313.127 1678.67 295.482 1678.67 284.458C1678.67 273.435 1667.63 264.607 1667.63 264.607C1667.63 264.607 1612.52 239.249 1604.79 232.629C1597.08 226.008 1527.6 168.671 1522.1 158.751C1516.58 148.831 1504.45 121.266 1497.84 113.542C1491.22 105.829 1428.38 89.2877 1412.94 82.6669C1397.5 76.0462 1377.64 56.2057 1368.27 39.6647C1358.92 23.1237 1341.27 -22.6589 1335.75 -28.6954C1330.24 -34.7319 1318.11 -34.7319 1318.11 -34.7319H1066.99L1067.01 -34.7211Z" fill="#633BBC"/>
<path fill-rule="evenodd" clip-rule="evenodd" d="M1998.24 473.032C1998.24 473.032 2048.27 505.746 2062.26 517.732C2076.25 529.719 2122.2 535.052 2131.2 538.384C2140.2 541.716 2161.77 571.694 2161.77 571.694C2161.77 571.694 2174.2 593.86 2177.17 609.752C2180.16 625.644 2220.06 643.634 2220.06 643.634L2257.91 659.624C2257.91 659.624 2199.25 593.676 2192.71 577.698C2186.15 561.708 2194.18 547.061 2177.18 538.395C2160.18 529.741 2118.84 515.753 2114.54 499.764C2110.23 483.774 2042.95 427.823 2021.64 417.837C2000.33 407.841 1937.12 383.868 1937.12 383.868C1937.12 383.868 1978.18 451.071 1998.25 473.053L1998.24 473.032Z" fill="#633BBC"/>
<path fill-rule="evenodd" clip-rule="evenodd" d="M2010.95 106.932C2010.95 106.932 2077.43 166.476 2116.93 189.626C2156.44 212.777 2178.1 202.857 2178.1 202.857C2178.1 202.857 2212.99 213.037 2234.33 229.448C2255.68 245.859 2252.37 275.631 2265.6 292.172C2278.83 308.713 2333.41 297.138 2333.41 297.138L2415.19 387.48L2469.25 444.33C2469.25 444.33 2410.9 368.245 2401.1 351.715C2391.29 335.174 2323.49 239.249 2310.24 222.708C2297.01 206.167 2278.82 209.478 2265.59 186.327C2252.36 163.176 2237.47 136.704 2215.96 116.863C2194.47 97.012 2149.85 67.2404 2125.85 54.0098C2101.84 40.7791 2063.81 27.5485 2063.81 27.5485L1997.65 12.6627L1933.15 -22.5938H1637.1C1637.1 -22.5938 1782.32 77.1715 1848.31 101.978C1873.28 111.357 2010.94 106.943 2010.94 106.943L2010.95 106.932Z" fill="#633BBC"/>
<path fill-rule="evenodd" clip-rule="evenodd" d="M2272.64 -12.554C2272.64 -12.554 2308.62 38.7134 2334.39 53.5992C2360.15 68.485 2392.72 74.8245 2404.9 89.7103C2417.09 104.596 2464.22 138.63 2464.22 138.63L2531.9 166.617C2531.9 166.617 2439.76 88.7259 2429.67 70.6054C2419.57 52.4958 2392.47 37.6099 2392.47 37.6099L2272.64 -12.554Z" fill="#633BBC"/>
<path fill-rule="evenodd" clip-rule="evenodd" d="M-37.4473 290.151C-37.4473 290.151 78.3181 373.895 101.556 394.039C124.793 414.182 187.214 412.657 207.877 433.795C228.539 454.934 265.592 464.194 291.534 492.917C317.476 521.628 403.394 542.788 432.678 576.671C461.974 610.553 511.792 624.433 536.901 639.73C562.01 655.027 639.825 692.079 639.825 692.079C639.825 692.079 544.83 647.617 529.339 603.154C513.847 558.691 522.642 503.28 522.642 503.28C522.642 503.28 542.548 498.921 522.642 462.106C502.737 425.292 519.364 401.828 494.374 370.952C469.384 340.077 457.43 284.494 474.523 258.562C491.616 232.631 531.438 156.493 522.642 111.197C513.847 65.8906 591.154 32.549 591.154 32.549C591.154 32.549 708.055 43.6701 722.108 62.1908C736.161 80.7224 839.042 111.197 839.042 111.197C839.042 111.197 921.249 115.741 932.457 111.197C943.653 106.654 978.888 136.295 1007.59 162.227C1036.29 188.169 1041.88 172.363 1081.74 200.123C1121.6 227.882 1129.22 269.792 1152.09 290.162C1152.09 290.162 1126.49 245.429 1118.44 200.123C1118.44 200.123 1159.39 204.634 1189.03 212.044C1218.67 219.455 1232.88 217.81 1253.36 233.453C1273.84 249.097 1296.38 258.973 1296.38 258.973C1296.38 258.973 1261.7 227.687 1253.36 210.389C1245.02 193.102 1238.43 175.803 1227.73 169.215C1217.03 162.627 1095.92 132.076 1064.89 117.71C1033.87 103.343 1007.59 56.0028 1007.59 56.0028C1007.59 56.0028 936.578 -43.7625 891.78 -45.277C846.982 -46.7915 768.453 -68.3522 739.861 -88.5064C711.268 -108.661 616.912 -223.171 616.912 -223.171H-21.696L-37.4473 290.151Z" fill="#633BBC"/>
<path fill-rule="evenodd" clip-rule="evenodd" d="M986.934 490.641C986.934 490.641 1036.97 523.355 1050.96 535.342C1064.94 547.328 1110.89 552.662 1119.89 555.994C1128.89 559.326 1150.46 589.303 1150.46 589.303C1150.46 589.303 1162.89 611.469 1165.87 627.361C1168.85 643.253 1208.75 661.244 1208.75 661.244L1246.6 677.233C1246.6 677.233 1187.95 611.285 1181.4 595.307C1174.85 579.318 1182.87 564.67 1165.88 556.005C1148.87 547.35 1107.53 533.362 1103.23 517.373C1098.92 501.384 1031.65 445.432 1010.33 435.447C989.022 425.451 925.811 401.478 925.811 401.478C925.811 401.478 966.877 468.68 986.945 490.663L986.934 490.641Z" fill="#633BBC"/>
</g>
<path d="M2301.88 21.8575C2300.37 21.8575 2299.14 20.4597 2299.14 18.7353C2299.14 17.011 2300.37 15.613 2301.88 15.613C2303.4 15.613 2304.63 17.011 2304.63 18.7353C2304.63 20.4597 2303.4 21.8575 2301.88 21.8575Z" fill="white"/>
<path d="M2216.23 13.545C2216.23 14.6735 2217.05 15.6138 2218.07 15.6138C2219.08 15.6138 2219.91 14.6735 2219.91 13.545C2219.91 12.4165 2219.08 11.4761 2218.07 11.4761C2217.05 11.4761 2216.23 12.4165 2216.23 13.545Z" fill="white"/>
<path d="M2264.74 378.24C2263.38 377.488 2261.73 378.127 2261.05 379.669C2260.37 381.212 2260.94 383.093 2262.33 383.845C2263.72 384.597 2265.34 383.958 2266.01 382.415C2266.69 380.873 2266.13 378.992 2264.74 378.24Z" fill="white"/>
<path d="M2199.46 95.6633C2198.56 95.1743 2197.43 95.5881 2196.98 96.6038C2196.52 97.6194 2196.9 98.8607 2197.8 99.3874C2198.71 99.8764 2199.83 99.4626 2200.28 98.447C2200.74 97.4313 2200.36 96.19 2199.46 95.6633Z" fill="white"/>
<path d="M2584.41 325.018C2582.27 325.507 2580.84 327.839 2581.29 330.284C2581.71 332.729 2583.81 334.271 2585.96 333.82C2588.1 333.331 2589.53 330.999 2589.08 328.554C2588.66 326.146 2586.56 324.566 2584.41 325.018Z" fill="white"/>
<g opacity="0.64">
<path d="M3081.59 211.328C3081.59 212.08 3082.12 212.682 3082.79 212.682C3083.47 212.682 3084 212.08 3084 211.328C3084 210.576 3083.47 209.974 3082.79 209.974C3082.12 209.974 3081.59 210.576 3081.59 211.328Z" fill="white"/>
<path d="M3032.51 150.352C3032.51 150.841 3032.88 151.255 3033.3 151.255C3033.71 151.255 3034.09 150.841 3034.09 150.352C3034.09 149.863 3033.71 149.449 3033.3 149.449C3032.88 149.449 3032.51 149.863 3032.51 150.352Z" fill="white"/>
<path d="M3020.58 280.245C3019.98 279.906 3019.27 280.207 3018.97 280.847C3018.66 281.486 3018.93 282.314 3019.53 282.652C3020.13 282.991 3020.85 282.69 3021.15 282.05C3021.45 281.373 3021.18 280.583 3020.58 280.245Z" fill="white"/>
<path d="M2905.42 169.124C2905.01 168.898 2904.56 169.124 2904.37 169.538C2904.18 169.989 2904.37 170.516 2904.74 170.741C2905.16 170.967 2905.61 170.741 2905.8 170.327C2905.98 169.914 2905.8 169.349 2905.42 169.124Z" fill="white"/>
<path d="M3163.77 275.811C3162.83 276.037 3162.23 277.052 3162.42 278.106C3162.61 279.159 3163.51 279.836 3164.45 279.648C3165.39 279.422 3165.99 278.407 3165.8 277.353C3165.62 276.3 3164.71 275.623 3163.77 275.811Z" fill="white"/>
</g>
<g opacity="0.64">
<path d="M2358.95 219.502C2359.06 218.749 2358.61 218.072 2357.97 217.922C2357.33 217.809 2356.69 218.298 2356.58 219.013C2356.47 219.765 2356.92 220.442 2357.56 220.593C2358.2 220.743 2358.83 220.216 2358.95 219.502Z" fill="white"/>
<path d="M2394.11 228.603C2394.19 228.114 2393.89 227.663 2393.48 227.55C2393.02 227.475 2392.61 227.813 2392.54 228.302C2392.46 228.791 2392.76 229.243 2393.17 229.356C2393.63 229.431 2394.04 229.092 2394.11 228.603Z" fill="white"/>
<path d="M2483.99 227.997C2484.97 228.787 2486.32 228.523 2487 227.433C2487.71 226.342 2487.49 224.837 2486.51 224.047C2485.53 223.257 2484.18 223.52 2483.5 224.611C2482.79 225.702 2483.01 227.207 2483.99 227.997Z" fill="white"/>
<path d="M2346.87 126.844C2347.5 127.371 2348.41 127.22 2348.9 126.468C2349.35 125.753 2349.23 124.738 2348.56 124.211C2347.92 123.684 2347.02 123.835 2346.53 124.587C2346.08 125.302 2346.19 126.318 2346.87 126.844Z" fill="white"/>
<path d="M2287.65 140.238C2288.59 140.238 2289.34 139.335 2289.34 138.245C2289.34 137.154 2288.52 136.326 2287.58 136.364C2286.64 136.364 2285.88 137.266 2285.88 138.357C2285.88 139.448 2286.71 140.276 2287.65 140.238Z" fill="white"/>
<path d="M2579.9 109.773C2579.9 111.127 2580.88 112.218 2582.08 112.218C2583.29 112.218 2584.27 111.127 2584.27 109.773C2584.27 108.418 2583.29 107.327 2582.08 107.327C2580.88 107.327 2579.9 108.418 2579.9 109.773Z" fill="white"/>
<path d="M2658.15 278.596C2658.15 281.304 2660.11 283.486 2662.52 283.486C2664.92 283.486 2666.88 281.304 2666.88 278.596C2666.88 275.887 2664.92 273.706 2662.52 273.706C2660.11 273.706 2658.15 275.887 2658.15 278.596Z" fill="white"/>
</g>
<g opacity="0.64">
<path d="M450.683 20.9683C450.307 20.5545 449.705 20.5545 449.329 20.9683C448.953 21.3821 448.953 22.0968 449.329 22.5106C449.705 22.9244 450.307 22.9244 450.683 22.5106C451.059 22.0968 451.059 21.3821 450.683 20.9683Z" fill="white"/>
</g>
<g opacity="0.64">
<path d="M216.582 178.996C216.018 179.635 215.98 180.651 216.582 181.29C217.146 181.93 218.048 181.967 218.65 181.29C219.214 180.651 219.252 179.635 218.65 178.996C218.048 178.356 217.184 178.319 216.582 178.996Z" fill="white"/>
<path d="M222.064 79.7557C221.688 80.1695 221.688 80.8842 222.064 81.298C222.44 81.7118 223.042 81.7494 223.418 81.298C223.794 80.8842 223.794 80.2071 223.418 79.7557C223.042 79.3043 222.44 79.3043 222.064 79.7557Z" fill="white"/>
<path d="M112.241 177.706C111.978 176.841 111.189 176.389 110.399 176.652C109.647 176.916 109.233 177.856 109.459 178.721C109.722 179.587 110.512 180.038 111.301 179.775C112.053 179.511 112.467 178.571 112.241 177.706Z" fill="white"/>
<path d="M236.354 313.436C235.414 312.684 234.098 312.985 233.459 314.038C232.819 315.092 233.045 316.559 233.985 317.311C234.925 318.063 236.241 317.762 236.88 316.709C237.519 315.656 237.294 314.189 236.354 313.436Z" fill="white"/>
</g>
<g opacity="0.64">
<path d="M1442.57 251.065C1443.18 251.704 1444.19 251.855 1444.83 251.328C1445.47 250.839 1445.51 249.898 1444.87 249.221C1444.27 248.582 1443.25 248.432 1442.61 248.958C1441.97 249.447 1441.94 250.388 1442.57 251.065Z" fill="white"/>
<path d="M1345.84 234.699C1346.25 235.15 1346.93 235.226 1347.34 234.887C1347.76 234.549 1347.79 233.909 1347.34 233.495C1346.93 233.044 1346.25 232.969 1345.84 233.307C1345.42 233.646 1345.39 234.285 1345.84 234.699Z" fill="white"/>
<path d="M1440.22 357.822C1439.4 357.972 1438.91 358.762 1439.17 359.59C1439.43 360.417 1440.34 360.906 1441.16 360.756C1441.99 360.605 1442.48 359.815 1442.22 358.988C1441.95 358.16 1441.05 357.671 1440.22 357.822Z" fill="white"/>
<path d="M1239.23 347.517C1238.67 347.63 1238.36 348.157 1238.55 348.684C1238.74 349.21 1239.34 349.586 1239.87 349.473C1240.43 349.361 1240.73 348.834 1240.55 348.307C1240.36 347.781 1239.76 347.405 1239.23 347.517Z" fill="white"/>
<path d="M1573.94 245.424C1573.22 246.327 1573.45 247.681 1574.5 248.471C1575.55 249.261 1576.98 249.186 1577.7 248.283C1578.41 247.38 1578.19 246.026 1577.13 245.236C1576.08 244.446 1574.65 244.522 1573.94 245.424Z" fill="white"/>
</g>
<g opacity="0.64">
<path d="M976.806 351.301C976.242 351.94 976.204 352.956 976.806 353.595C977.408 354.235 978.272 354.272 978.874 353.595C979.438 352.956 979.476 351.94 978.874 351.301C978.31 350.661 977.408 350.624 976.806 351.301Z" fill="white"/>
<path d="M982.252 252.06C981.876 252.474 981.876 253.151 982.252 253.602C982.628 254.016 983.23 254.054 983.606 253.602C983.982 253.188 983.982 252.474 983.606 252.06C983.23 251.646 982.628 251.608 982.252 252.06Z" fill="white"/>
<path d="M867.608 326.057C867.345 325.192 866.555 324.74 865.766 325.003C865.014 325.267 864.6 326.207 864.826 327.072C865.089 327.938 865.879 328.389 866.668 328.126C867.42 327.862 867.834 326.922 867.608 326.057Z" fill="white"/>
<path d="M860.665 144.1C860.515 143.536 859.951 143.235 859.462 143.423C858.973 143.611 858.672 144.213 858.86 144.815C859.011 145.379 859.575 145.68 860.063 145.492C860.552 145.304 860.853 144.702 860.665 144.1Z" fill="white"/>
<path d="M953.252 442.657C952.312 441.905 950.995 442.205 950.356 443.259C949.717 444.312 949.943 445.779 950.883 446.531C951.823 447.284 953.139 446.983 953.778 445.93C954.417 444.876 954.192 443.409 953.252 442.657Z" fill="white"/>
</g>
<g opacity="0.64">
<path d="M1255.87 103.625C1255.76 104.377 1256.21 105.054 1256.85 105.205C1257.48 105.318 1258.12 104.829 1258.24 104.114C1258.35 103.362 1257.9 102.684 1257.26 102.534C1256.62 102.384 1255.98 102.91 1255.87 103.625Z" fill="white"/>
<path d="M1220.69 94.5262C1220.61 95.0152 1220.91 95.4666 1221.32 95.5794C1221.78 95.6547 1222.19 95.3162 1222.26 94.8272C1222.34 94.3381 1222.04 93.8867 1221.63 93.7739C1221.17 93.6987 1220.76 94.0371 1220.69 94.5262Z" fill="white"/>
<path d="M1130.82 95.1643C1129.84 94.3744 1128.49 94.6377 1127.81 95.7285C1127.09 96.8194 1127.32 98.3241 1128.3 99.1141C1129.27 99.904 1130.63 99.6407 1131.31 98.5498C1132.02 97.4589 1131.79 95.9543 1130.82 95.1643Z" fill="white"/>
<path d="M1171.72 38.3218C1171.09 37.7951 1170.18 37.9456 1169.69 38.698C1169.24 39.4127 1169.36 40.4284 1170.03 40.955C1170.67 41.4817 1171.57 41.3312 1172.06 40.5788C1172.55 39.8265 1172.4 38.8484 1171.72 38.3218Z" fill="white"/>
<path d="M1351.2 211.626C1350.26 211.626 1349.5 212.529 1349.5 213.62C1349.5 214.711 1350.33 215.538 1351.27 215.501C1352.21 215.501 1352.96 214.598 1352.96 213.507C1352.96 212.416 1352.14 211.589 1351.2 211.626Z" fill="white"/>
<path d="M1066.2 341.413C1064.99 341.413 1064.02 340.318 1064.02 338.968C1064.02 337.618 1064.99 336.523 1066.2 336.523C1067.4 336.523 1068.38 337.618 1068.38 338.968C1068.38 340.318 1067.4 341.413 1066.2 341.413Z" fill="white"/>
<path d="M956.634 44.5307C956.634 41.8222 954.679 39.6405 952.272 39.6405C949.866 39.6405 947.911 41.8222 947.911 44.5307C947.911 47.2391 949.866 49.4209 952.272 49.4209C954.679 49.4209 956.634 47.2391 956.634 44.5307Z" fill="white"/>
</g>
<g opacity="0.64">
<path d="M2528.06 648.329C2527.87 647.614 2527.2 647.125 2526.56 647.276C2525.92 647.426 2525.54 648.104 2525.73 648.818C2525.92 649.533 2526.59 650.022 2527.23 649.872C2527.87 649.721 2528.25 649.044 2528.06 648.329Z" fill="white"/>
<path d="M2564 642.839C2563.89 642.35 2563.44 642.049 2562.99 642.125C2562.53 642.2 2562.31 642.689 2562.42 643.178C2562.53 643.667 2562.99 643.968 2563.44 643.893C2563.89 643.817 2564.11 643.328 2564 642.839Z" fill="white"/>
<path d="M2646.3 606.956C2647.51 607.294 2648.64 606.542 2648.86 605.263C2649.09 603.984 2648.26 602.667 2647.06 602.329C2645.85 601.99 2644.73 602.743 2644.5 604.022C2644.27 605.301 2645.1 606.617 2646.3 606.956Z" fill="white"/>
<path d="M2631.3 675.231C2632.09 675.457 2632.88 674.968 2632.99 674.103C2633.14 673.238 2632.58 672.373 2631.79 672.147C2631 671.921 2630.21 672.41 2630.1 673.275C2629.95 674.141 2630.51 675.006 2631.3 675.231Z" fill="white"/>
<path d="M2397.59 586.642C2398.45 586.228 2398.79 585.138 2398.34 584.16C2397.89 583.181 2396.84 582.73 2395.97 583.106C2395.11 583.52 2394.77 584.611 2395.22 585.589C2395.67 586.567 2396.72 587.018 2397.59 586.642Z" fill="white"/>
<path d="M2606.82 358.416C2607.34 359.657 2608.7 360.297 2609.79 359.807C2610.88 359.318 2611.37 357.964 2610.8 356.723C2610.24 355.482 2608.92 354.842 2607.83 355.331C2606.74 355.82 2606.25 357.174 2606.82 358.416Z" fill="white"/>
</g>
<g opacity="0.64">
<path d="M1206.75 608.747C1206.45 607.129 1205.32 606.038 1204.27 606.377C1203.21 606.678 1202.57 608.295 1202.91 609.913C1203.25 611.53 1204.34 612.621 1205.39 612.283C1206.45 611.944 1207.09 610.364 1206.75 608.747Z" fill="white"/>
<path d="M1265.67 596.368C1265.49 595.277 1264.73 594.562 1264.02 594.788C1263.3 595.014 1262.89 596.067 1263.12 597.158C1263.3 598.249 1264.06 598.964 1264.77 598.738C1265.49 598.512 1265.9 597.459 1265.67 596.368Z" fill="white"/>
<path d="M1400.7 515.01C1402.65 515.8 1404.53 514.069 1404.87 511.173C1405.21 508.276 1403.89 505.304 1401.94 504.514C1399.98 503.724 1398.1 505.455 1397.76 508.351C1397.43 511.248 1398.74 514.22 1400.7 515.01Z" fill="white"/>
<path d="M1376.07 669.759C1377.39 670.285 1378.63 669.119 1378.85 667.201C1379.08 665.282 1378.22 663.289 1376.9 662.762C1375.58 662.235 1374.34 663.401 1374.12 665.32C1373.89 667.238 1374.76 669.232 1376.07 669.759Z" fill="white"/>
<path d="M793.541 549.05C794.97 548.147 795.534 545.627 794.782 543.407C794.03 541.188 792.3 540.135 790.871 541.037C789.443 541.94 788.879 544.461 789.631 546.68C790.383 548.899 792.112 549.953 793.541 549.05Z" fill="white"/>
</g>
<g opacity="0.64">
<path d="M1841.88 375.907C1842.52 375.493 1842.75 374.703 1842.41 374.139C1842.07 373.575 1841.28 373.424 1840.64 373.838C1840 374.252 1839.78 375.042 1840.12 375.606C1840.45 376.17 1841.24 376.321 1841.88 375.907Z" fill="white"/>
<path d="M1858.39 408.147C1858.8 407.883 1858.95 407.357 1858.72 406.98C1858.5 406.604 1857.97 406.529 1857.56 406.792C1857.14 407.056 1856.99 407.582 1857.22 407.958C1857.45 408.335 1857.97 408.41 1858.39 408.147Z" fill="white"/>
<path d="M1918.55 474.574C1918.59 475.816 1919.68 476.643 1920.96 476.455C1922.24 476.267 1923.25 475.064 1923.18 473.822C1923.14 472.581 1922.05 471.753 1920.77 471.941C1919.49 472.129 1918.48 473.333 1918.55 474.574Z" fill="white"/>
<path d="M1848.69 481.876C1848.69 482.703 1849.44 483.268 1850.3 483.117C1851.17 482.967 1851.81 482.214 1851.81 481.387C1851.81 480.559 1851.06 479.995 1850.19 480.146C1849.33 480.296 1848.69 481.048 1848.69 481.876Z" fill="white"/>
<path d="M1859.64 233.3C1860.28 233.977 1861.49 233.977 1862.28 233.225C1863.07 232.51 1863.18 231.344 1862.54 230.629C1861.9 229.952 1860.7 229.952 1859.91 230.704C1859.12 231.419 1859 232.585 1859.64 233.3Z" fill="white"/>
<path d="M2143.2 359.133C2142.19 360.035 2142 361.465 2142.79 362.368C2143.58 363.27 2145.05 363.27 2146.06 362.368C2147.08 361.465 2147.26 360.035 2146.47 359.133C2145.69 358.23 2144.22 358.23 2143.2 359.133Z" fill="white"/>
</g>
<g opacity="0.64">
<path d="M551.377 522.351C551.189 521.637 550.512 521.148 549.873 521.298C549.234 521.448 548.857 522.126 549.045 522.84C549.233 523.555 549.91 524.044 550.55 523.894C551.189 523.743 551.565 523.066 551.377 522.351Z" fill="white"/>
<path d="M587.312 516.9C587.199 516.411 586.748 516.11 586.297 516.186C585.846 516.261 585.62 516.75 585.733 517.239C585.845 517.728 586.297 518.029 586.748 517.954C587.199 517.878 587.425 517.389 587.312 516.9Z" fill="white"/>
<path d="M669.621 480.967C670.824 481.306 671.952 480.553 672.178 479.275C672.403 477.996 671.576 476.679 670.373 476.34C669.17 476.002 668.042 476.754 667.816 478.033C667.59 479.312 668.418 480.629 669.621 480.967Z" fill="white"/>
<path d="M420.921 460.662C421.785 460.248 422.124 459.157 421.673 458.179C421.221 457.201 420.169 456.749 419.304 457.126C418.439 457.539 418.1 458.63 418.552 459.608C419.003 460.586 420.056 461.038 420.921 460.662Z" fill="white"/>
</g>
<path d="M1987.52 147.007C1986.43 144.562 1983.8 143.584 1981.62 144.825C1979.44 146.067 1978.58 149.039 1979.67 151.484C1980.76 153.929 1983.39 154.907 1985.57 153.665C1987.75 152.424 1988.62 149.452 1987.52 147.007Z" fill="white"/>
<path d="M1673.71 149.905C1675.26 149.905 1676.46 148.475 1676.46 146.745C1676.46 145.014 1675.18 143.66 1673.68 143.66C1672.13 143.66 1670.93 145.09 1670.93 146.82C1670.93 148.55 1672.21 149.905 1673.71 149.905Z" fill="white"/>
<path d="M1969.6 248.049C1970.62 248.049 1971.44 247.108 1971.4 245.942C1971.4 244.814 1970.54 243.873 1969.52 243.911C1968.51 243.911 1967.68 244.851 1967.72 246.017C1967.72 247.146 1968.58 248.086 1969.6 248.049Z" fill="white"/>
<path d="M1344.85 263.469C1343.87 261.287 1341.5 260.422 1339.54 261.512C1337.59 262.603 1336.84 265.274 1337.81 267.456C1338.79 269.638 1341.16 270.503 1343.12 269.412C1345.07 268.321 1345.82 265.65 1344.85 263.469Z" fill="white"/>
<path d="M1040.97 534.761C1042.1 534.761 1043 533.708 1043 532.429C1043 531.15 1042.06 530.134 1040.93 530.134C1039.81 530.134 1038.9 531.187 1038.9 532.466C1038.9 533.745 1039.84 534.761 1040.97 534.761Z" fill="white"/>
<path d="M1167.63 150.548C1169.81 150.548 1171.54 148.517 1171.5 146.072C1171.5 143.627 1169.69 141.671 1167.51 141.708C1165.33 141.746 1163.6 143.74 1163.64 146.185C1163.64 148.63 1165.44 150.586 1167.63 150.548Z" fill="white"/>
<path d="M442.016 281.983C443.031 281.08 443.22 279.425 442.43 278.296C441.64 277.168 440.174 276.942 439.159 277.845C438.144 278.748 437.955 280.403 438.745 281.531C439.535 282.66 441.001 282.886 442.016 281.983Z" fill="white"/>
<path d="M790.366 797.1C791.494 797.1 792.396 796.046 792.396 794.767C792.396 793.488 791.456 792.473 790.328 792.473C789.2 792.473 788.298 793.526 788.298 794.805C788.298 796.084 789.238 797.1 790.366 797.1Z" fill="white"/>
<path d="M886.913 390.311C889.094 390.311 890.824 388.28 890.786 385.835C890.786 383.39 888.981 381.434 886.8 381.471C884.62 381.509 882.89 383.503 882.927 385.948C882.927 388.393 884.732 390.349 886.913 390.311Z" fill="white"/>
<path d="M191.374 544.319C192.389 543.416 192.577 541.761 191.787 540.632C190.998 539.504 189.531 539.278 188.516 540.181C187.501 541.084 187.313 542.739 188.103 543.868C188.892 544.996 190.359 545.222 191.374 544.319Z" fill="white"/>
<g opacity="0.4" filter="url(#filter0_f_6_421)">
<ellipse cx="1567.05" cy="28.9556" rx="1473.44" ry="742.648" fill="#633BBC"/>
</g>
<rect opacity="0.8" width="3195.26" height="1617.6" transform="matrix(1 0 0 -1 -0.00140381 1616.6)" fill="url(#paint0_linear_6_421)"/>
</g>
<defs>
<filter id="filter0_f_6_421" x="-655.279" y="-1462.58" width="4444.66" height="2983.07" filterUnits="userSpaceOnUse" color-interpolation-filters="sRGB">
<feFlood flood-opacity="0" result="BackgroundImageFix"/>
<feBlend mode="normal" in="SourceGraphic" in2="BackgroundImageFix" result="shape"/>
<feGaussianBlur stdDeviation="374.444" result="effect1_foregroundBlur_6_421"/>
</filter>
<linearGradient id="paint0_linear_6_421" x1="1597.63" y1="0" x2="1597.63" y2="1617.6" gradientUnits="userSpaceOnUse">
<stop stop-color="#121214"/>
<stop offset="1" stop-color="#121214" stop-opacity="0"/>
</linearGradient>
<clipPath id="clip0_6_421">
<rect width="3195.26" height="1348" fill="white" transform="translate(0 -1)"/>
</clipPath>
</defs>
</svg>
